<svg width="61" height="66" viewBox="0 0 61 66" fill="none" xmlns="http://www.w3.org/2000/svg">
<path d="M31.5399 35.4163C31.2603 35.29 30.9799 35.1514 30.7041 35.0035C30.8551 34.9072 30.9984 34.8155 31.1386 34.7269L31.8457 35.2099L31.5399 35.4163ZM29.9901 36.4655L29.1165 35.8685C29.4224 35.7252 29.7127 35.5743 29.9901 35.4233C30.2697 35.5743 30.5608 35.7252 30.8697 35.8685L29.9901 36.4655ZM31.7979 38.7494L29.9901 39.9981L28.1883 38.7494L29.9901 37.527L31.7979 38.7494ZM28.1398 35.2099L28.8439 34.7269C28.9802 34.8155 29.1242 34.9072 29.2783 35.0035C29.0025 35.1514 28.726 35.29 28.4464 35.4163L28.1398 35.2099ZM29.9901 33.9389L30.4977 34.2848C30.339 34.3888 30.1665 34.4912 29.9901 34.5975C29.8167 34.4912 29.6465 34.3888 29.4847 34.2848L29.9901 33.9389ZM36.6862 32.1079C36.6708 32.0895 36.3026 31.7105 35.6579 31.7105C35.3228 31.7105 34.9723 31.8175 34.6234 32.0201C34.5602 32.0525 34.5232 32.1226 34.5348 32.1934C34.5386 32.2112 34.789 33.9351 34.5972 34.6753C34.4539 35.2315 33.9817 35.8839 33.1236 35.8839C32.9395 35.8839 32.7523 35.8539 32.5528 35.7984C32.5528 35.7984 32.5459 35.7984 32.5459 35.7953L33.1937 35.3563C33.2422 35.3232 33.2715 35.2715 33.2715 35.213C33.2715 35.1545 33.2422 35.1028 33.1937 35.0697L31.9089 34.1854C32.314 33.8796 32.5713 33.6624 32.6044 33.6331C32.6414 33.6 32.6668 33.5569 32.6668 33.5076C32.6668 33.4606 32.6483 33.412 32.6121 33.3789L32.3834 33.1471C32.3502 33.1139 32.3025 33.0955 32.2624 33.0955C32.2255 33.0955 32.1846 33.1101 32.1554 33.1324C32.1407 33.1394 31.801 33.4013 31.2857 33.7579L30.7704 33.4013L32.7893 32.0132L32.9472 32.4137C32.9734 32.4761 33.0281 32.5208 33.102 32.5247C33.102 32.5247 33.1051 32.5247 33.109 32.5247C33.1721 32.5247 33.2307 32.4877 33.26 32.433L34.2213 30.6652C34.2544 30.6051 34.2475 30.5358 34.2105 30.4795C34.1774 30.4325 34.1227 30.4063 34.0665 30.4063C34.0595 30.4063 34.0518 30.4063 34.041 30.4063L32.0521 30.7045C31.9859 30.7122 31.9266 30.7599 31.9089 30.8269C31.8942 30.8893 31.9119 30.9587 31.9597 31.0064L32.284 31.2907L29.9901 32.8667L27.7023 31.2907L28.0227 31.0064C28.0705 30.9587 28.0921 30.8893 28.0705 30.8269C28.0558 30.7599 28.0004 30.7122 27.9303 30.7045L25.9414 30.4063C25.9345 30.4063 25.9229 30.4063 25.916 30.4063C25.8567 30.4063 25.8012 30.4325 25.7719 30.4795C25.7349 30.5358 25.7319 30.6051 25.7611 30.6652L26.7186 32.433C26.7517 32.4877 26.8111 32.5247 26.8734 32.5247C26.8811 32.5247 26.8811 32.5247 26.8842 32.5247C26.9505 32.5208 27.0098 32.4761 27.036 32.4137L27.1939 32.0132L29.2121 33.4013L28.6967 33.7579C28.1776 33.4013 27.8386 33.1394 27.8309 33.1324C27.7978 33.1101 27.7616 33.0955 27.7246 33.0955C27.6761 33.0955 27.6322 33.1139 27.5991 33.1471L27.3664 33.3789C27.3333 33.412 27.3156 33.4606 27.3156 33.5076C27.3187 33.5569 27.341 33.6 27.3741 33.6331C27.4111 33.6624 27.6653 33.8796 28.0743 34.1854L26.7849 35.0697C26.741 35.1028 26.7109 35.1545 26.7109 35.213C26.7148 35.2715 26.741 35.3232 26.7879 35.3563L27.4365 35.7953C27.4365 35.7984 27.4327 35.7984 27.4296 35.7984C27.2309 35.8539 27.0429 35.8839 26.8627 35.8839C26.0038 35.8839 25.5293 35.2315 25.3852 34.6753C25.1934 33.9351 25.4484 32.2112 25.4484 32.1934C25.4592 32.1226 25.4253 32.0525 25.3629 32.0201C25.0093 31.8175 24.6596 31.7105 24.3284 31.7105C23.6837 31.7105 23.3116 32.0895 23.297 32.1079C23.2677 32.1341 23.2492 32.1742 23.2492 32.2112C23.2384 32.3182 23.0428 34.8086 24.1959 36.0672C24.6234 36.5325 25.1788 36.7675 25.8528 36.7675C25.9714 36.7675 26.0993 36.7644 26.2256 36.7459C26.8811 36.6681 27.522 36.4948 28.1398 36.2737L29.209 36.9955L26.8403 38.5977C26.7918 38.6354 26.7625 38.687 26.7625 38.7456C26.7625 38.801 26.7879 38.8557 26.8403 38.8888L29.2159 40.5319L27.19 41.9346L27.036 41.5417C27.0098 41.4824 26.9505 41.4385 26.8842 41.4339C26.8811 41.4308 26.8811 41.4308 26.8734 41.4308C26.8111 41.4308 26.7517 41.467 26.7186 41.5225L25.7611 43.2942C25.7319 43.3496 25.7349 43.4228 25.7719 43.4744C25.8012 43.5222 25.8567 43.5483 25.916 43.5483C25.9229 43.5483 25.9345 43.5483 25.9414 43.5483L27.9303 43.2541C28.0004 43.2425 28.0558 43.1948 28.0705 43.1324C28.0921 43.0662 28.0705 42.9953 28.0227 42.9483L27.6946 42.6571L29.9901 41.0695L32.2878 42.6571L31.9597 42.9483C31.9089 42.9953 31.8904 43.0662 31.9089 43.1324C31.9266 43.1948 31.982 43.2425 32.0521 43.2541L34.041 43.5483C34.0518 43.5483 34.0595 43.5483 34.0665 43.5483C34.1227 43.5483 34.1774 43.5222 34.2105 43.4744C34.2475 43.4228 34.2513 43.3496 34.2213 43.2942L33.26 41.5225C33.2307 41.467 33.1721 41.4308 33.109 41.4308C33.1051 41.4308 33.102 41.4308 33.102 41.4339C33.0281 41.4385 32.9734 41.4824 32.9472 41.5417L32.7893 41.9346L30.7665 40.5319L33.1421 38.8888C33.1906 38.8557 33.2199 38.801 33.2199 38.7456C33.2199 38.687 33.1906 38.6354 33.1421 38.5977L30.7742 36.9955L31.8457 36.2737C32.4612 36.4948 33.1051 36.6681 33.7576 36.7459C33.8862 36.7644 34.0118 36.7675 34.1296 36.7675C34.8036 36.7675 35.3636 36.5325 35.7873 36.0672C36.9435 34.8086 36.7448 32.3182 36.734 32.2112C36.7301 32.1742 36.7116 32.1341 36.6862 32.1079Z" fill="#D92C04"/>
<path d="M37.3005 33.5698C37.3706 33.4335 37.4038 33.1685 37.4038 33.1685L37.3005 33.1354V33.5698Z" fill="#D92C04"/>
<path d="M35.4405 44.9035C33.5694 48.5393 30.1401 51.4996 30.1 51.4564C30.0592 51.4996 26.6298 48.5393 24.7588 44.9035C22.8877 41.2716 21.6876 35.566 21.6214 32.8407C21.5544 30.1154 22.0882 28.9477 22.0882 28.9477C22.0882 28.9477 24.4276 28.8182 26.2986 28.1666C27.8862 27.6181 29.614 26.2254 30.1 25.8203C30.5822 26.2254 32.3138 27.6181 33.9045 28.1666C35.7725 28.8182 38.1111 28.9477 38.1111 28.9477C38.1111 28.9477 38.6457 30.1154 38.5748 32.8407C38.5085 35.566 37.3084 41.2716 35.4405 44.9035ZM35.6169 57.2652C35.8603 57.732 36.0005 58.6463 35.2564 58.7164C34.8404 57.6257 34.3397 56.9887 33.7204 56.109C33.1458 55.4304 32.5126 54.7309 32.0596 53.9645C33.0757 55.1577 35.1169 56.3478 35.6169 57.2652ZM32.0596 62.8082C32.1991 61.7398 31.9225 59.3535 31.4889 57.732C31.19 56.642 30.1994 53.7796 30.6408 52.7567C30.8141 54.1047 31.3525 56.2114 32.1297 57.9392C32.6813 59.1794 33.4924 62.0641 32.0596 62.8082ZM28.7073 57.732C28.2952 59.3535 28.0002 61.7398 28.1396 62.8082C26.7038 62.0641 27.518 59.1794 28.0703 57.9392C28.8437 56.2114 29.3813 54.1047 29.5546 52.7567C30.0006 53.7796 29.0093 56.642 28.7073 57.732ZM26.4973 56.109C25.8565 56.9887 25.3558 57.6257 24.9429 58.7164C24.1988 58.6463 24.339 57.732 24.5824 57.2652C25.0831 56.3478 27.1197 55.1577 28.1396 53.9645C27.6875 54.7309 27.0535 55.4196 26.4973 56.109ZM18.8437 44.2742C18.8807 44.513 18.9138 44.6532 19.0163 44.8111C17.6867 45.0175 17.1198 45.5367 16.6376 46.3802C15.9597 47.5187 16.6669 48.9884 16.4751 49.5961C16.3395 49.9759 15.8935 50.3402 15.1856 50.009C15.5284 51.5296 17.4294 51.357 17.9294 50.5097C18.0996 51.2168 17.9294 52.031 17.5835 52.3399C18.1735 52.3731 18.6742 52.1335 18.9831 51.6659C19.0532 51.8061 19.0532 51.9979 19.0863 52.1666C19.4145 51.9979 19.6248 51.8061 19.7604 51.6328C19.812 51.8023 19.8782 52.1997 19.7973 52.5248C19.5439 52.6974 19.2558 52.856 18.8106 53.084C18.0996 53.4307 16.8101 53.9314 16.066 54.0338C15.4583 54.1378 14.4053 53.7912 14.1287 52.9439C13.8853 52.1335 13.2152 51.8762 12.6775 52.3731C12.5412 52.2698 12.1622 52.1997 12.0035 52.4478C12.0035 52.4478 11.834 52.0642 11.6237 51.8762C11.7639 51.4595 11.6569 50.9588 11.2779 50.7901C11.2448 49.9759 10.7441 49.9759 10.5707 49.6994C10.4683 49.5261 10.4683 49.3158 10.7109 49.2826C10.6077 49.1286 10.3974 49.0955 10.3643 49.0955C10.4313 48.7488 10.3273 48.3182 9.86362 48.178L5.76796 39.7318C6.02909 39.456 5.89352 39.0578 5.59465 38.9176C5.59465 38.9176 5.59465 38.8845 5.59465 38.8521C5.62007 38.7859 5.62392 38.7335 5.63162 38.6826C5.74177 38.6634 5.87503 38.638 5.99289 38.6087C6.80324 38.4169 8.06575 37.2275 9.15649 36.4834C8.77288 36.8809 7.1853 38.0379 6.47817 38.7119C5.8188 39.3674 6.09534 40.0229 6.20241 40.613L6.35724 40.9396C6.9573 40.9773 7.85623 41.3386 8.53024 40.7847C8.73976 40.5791 11.6938 36.914 12.0882 36.5535C11.9372 36.8809 10.0701 39.2311 9.22658 40.5791C8.60033 41.5959 9.51775 42.2699 9.62405 42.8553C10.2942 42.6489 11.2116 43.0471 11.6938 42.2368C12.1622 41.4588 13.5949 38.6788 14.1287 37.8977C13.9223 38.5055 12.401 41.666 12.2985 41.9417C11.9372 43.014 12.8508 43.2204 13.2152 43.9306C13.7675 43.5339 14.7665 43.8428 15.1494 42.8222C15.3882 42.1328 15.9959 39.7318 16.3094 39.0909C16.2725 39.8026 16.066 40.7516 15.9266 41.8023C15.7864 42.8553 16.7732 42.8222 17.2893 43.43C17.7899 43.014 18.7074 43.1172 18.8437 42.1659C18.9831 41.3201 19.0163 39.2642 19.0163 39.2642C19.1564 39.3859 19.2265 39.419 19.3814 39.5585C19.7234 39.1618 20.4351 39.1618 20.6747 38.6788C20.781 38.7119 20.8141 38.782 20.9173 38.8521C21.6946 40.1439 21.7608 42.6489 20.6747 43.5339C20.9874 43.5339 21.3849 43.4962 21.6245 43.3938C21.1423 44.3766 20.07 44.724 18.8437 44.2742ZM6.41193 35.224C6.23168 35.2972 6.02216 35.3896 5.85578 35.4589C5.85578 35.4451 5.85578 35.4258 5.85578 35.412C6.02524 35.3496 6.23553 35.2864 6.41193 35.224ZM24.1295 13.9747C26.0668 13.5587 28.0333 12.4718 28.9176 11.559C29.6502 11.6029 30.5969 11.6099 31.3155 11.5698C32.1883 12.4903 34.1294 13.5587 36.0667 13.9747C34.9429 13.9747 32.9763 13.8715 32.7337 13.5949C32.8037 14.3021 34.3058 15.1016 35.2895 15.3227C34.4753 15.4251 33.7204 15.3227 33.0757 15.0315C33.4261 15.5322 33.8198 15.912 34.4753 16.1369C33.7866 16.9842 32.3724 17.5327 30.9689 17.3963C31.3155 17.8123 31.9564 18.0703 32.5126 18.0002C31.2524 20.0115 30.3172 22.0735 30.0962 24.4645L30.0885 24.4615L30.0854 24.4691C29.8751 22.0735 28.9469 20.0115 27.6905 18.0002C28.2582 18.0703 28.8845 17.8123 29.2088 17.3963C27.7938 17.5327 26.4273 16.9842 25.7201 16.1369C26.3795 15.912 26.7731 15.5322 27.1197 15.0315C26.4973 15.3227 25.7201 15.4251 24.9098 15.3227C25.8934 15.1016 27.4148 14.3021 27.4802 13.5949C27.223 13.8715 25.2564 13.9747 24.1295 13.9747ZM37.0504 59.6993C37.4848 60.4434 36.8809 60.9772 36.0336 60.9772C36.0336 60.6868 36.0336 60.5828 35.9635 60.2339C36.3579 60.1962 36.8185 60.049 37.0504 59.6993ZM24.1657 60.9772C23.3191 60.9772 22.7144 60.4434 23.1458 59.6993C23.37 60.0352 23.816 60.1939 24.1988 60.2339C24.1657 60.5828 24.1657 60.6868 24.1657 60.9772ZM4.57478 35.7386C4.5301 35.7386 4.48542 35.7386 4.43767 35.7386C4.43073 35.7285 4.42303 35.717 4.41225 35.7062C4.47464 35.6916 4.54165 35.6916 4.6002 35.6731C4.59635 35.6954 4.58556 35.717 4.57478 35.7386ZM3.55722 37.8977L3.21521 37.6959C3.35155 37.5364 3.48789 37.5364 3.62424 37.6258C3.62424 37.7282 3.62423 37.8315 3.55722 37.8977ZM2.88321 36.4503C2.85009 36.4503 2.85009 36.4834 2.81697 36.5166C2.60745 36.4834 2.60744 36.24 2.64442 36.0336C2.74379 36.0336 2.81697 36.0005 2.88321 35.9311L2.91633 35.9673L2.81697 36.0336C2.85009 36.1738 2.85009 36.3109 2.88321 36.4503ZM60.0598 27.3963C59.3196 26.9511 58.0933 26.7924 56.8485 26.9133C58.8004 26.2393 60.1299 24.7896 60.2 23.4924C59.1832 23.2013 58.1264 23.3561 57.2128 23.5625C58.1595 22.8546 59.714 21.559 59.526 19.6579C58.6125 19.4338 56.9332 20.0746 56.2253 20.3874C58.4723 19.1233 59.2826 16.1369 58.0933 14.443C57.3861 14.8582 54.1702 18.1366 53.651 18.5202C55.3125 16.6191 56.0897 15.2526 56.5388 13.9747C57.0726 12.5789 57.1058 10.144 55.3818 9.3298C54.5684 11.197 51.7176 15.9782 50.13 17.9671C49.9567 17.8123 49.8172 17.6028 49.5923 17.5696C49.2126 18.7821 48.0887 20.3874 47.0688 21.1607C47.0172 21.0583 46.9148 20.7818 46.7407 20.4867C45.6546 22.1113 42.8368 24.3397 41.9233 25.7055C41.2123 26.7223 41.2123 27.6404 42.199 28.5895C42.5973 28.9877 43.356 29.6956 42.7005 30.6785C41.8085 31.9826 40.0152 32.1336 39.0393 31.3671C39.0393 31.1353 39.0316 30.9142 39.0208 30.7078C40.1701 30.2625 40.4389 28.6965 39.5916 27.7244C39.4044 28.0811 39.0978 28.343 38.7304 28.4724C38.631 28.0672 38.5417 27.8685 38.5347 27.8492L38.4901 27.7537L38.3907 27.7498C38.3799 27.7468 38.0048 27.7283 37.4409 27.662C38.078 27.4525 38.4862 26.8625 38.3984 26.0667C37.4147 26.9133 36.428 26.1045 36.2031 25.8796C35.5845 25.1532 35.4112 24.3398 35.6538 23.0942C35.8603 22.0073 36.9834 20.2803 37.7244 19.728C37.8315 19.8304 38.0009 20.0377 38.3614 20.0045C38.5709 19.9383 38.9176 19.7611 39.1756 19.6579C39.9197 19.4338 40.6453 19.6063 41.1129 19.9013C41.9564 20.4174 41.8863 20.9874 41.857 21.4042C43.1457 20.6786 42.7005 19.4699 41.0097 19.0209C42.1659 19.0209 43.1164 20.0746 43.356 20.2102C43.9969 20.6785 44.9105 20.5753 45.4443 20.3173C46.4688 19.8305 46.6744 18.6226 46.3987 18.38C46.2954 18.8152 45.9673 19.1942 45.3742 19.2643C44.4976 19.3675 43.6472 18.9839 42.977 18.6889C42.4093 18.4493 41.4888 18.2768 40.8695 18.313C42.0265 17.6729 43.8236 17.7422 44.4606 18.7266C44.8442 18.4162 45.0838 18.1366 45.1901 17.4996C45.5182 15.7756 44.1702 14.8913 42.7336 14.8913C42.7706 14.4761 42.4756 14.2689 42.0966 14.4091C42.0966 14.2327 42.0488 14.0964 41.9525 14.0263C41.9857 14.0224 42.0303 14.0086 42.0596 14.0086C43.5108 13.9084 44.8773 13.4594 45.6176 12.6814C46.9148 11.2971 44.8442 9.53623 45.5845 8.17358C46.2954 8.48247 46.8146 8.88071 47.7944 9.01705C47.8977 9.22734 47.9862 9.63945 48.0194 9.86361C48.3321 11.4042 46.8146 11.6615 47.209 13.3007C47.3816 14.044 47.9385 14.302 48.1257 15.1863C48.1257 15.1863 48.1965 15.8049 47.6581 16.3433C48.9037 16.3765 49.5592 15.3227 49.1764 14.339C49.0061 13.9415 48.5717 13.5587 48.5717 13.095C49.2126 13.9415 49.7841 13.9084 50.767 13.5949C51.2161 13.4594 51.2531 14.0817 50.9734 14.5824C51.6475 14.1803 51.8246 13.5256 51.8246 13.2344C51.8246 12.5412 51.2862 12.2138 50.767 12.3532C50.4766 12.3863 49.8866 12.7854 49.8534 12.2138C49.7317 11.2301 51.2862 11.264 50.9734 9.67721C50.804 8.88073 49.9197 8.44629 48.5385 8.27605C48.4022 8.13663 48.0556 7.80848 47.8684 7.53195C47.1096 6.27328 46.3286 5.94513 45.8602 6.20318C45.3079 6.47818 45.0175 6.72236 44.5684 6.96116C44.2033 7.15219 43.8236 7.25618 43.5809 7.53195C42.977 8.27605 43.5478 9.43302 43.8567 10.144C44.067 10.5561 44.5684 11.5067 44.3435 12.2138C44.1001 13.0603 42.7005 13.5949 41.857 13.769C41.8015 13.769 41.7684 13.7867 41.7137 13.7867V13.4593C41.9564 13.0241 42.1659 12.508 42.3392 12.0405C42.91 10.5191 42.0596 9.90137 40.8033 9.60634C40.6453 9.50312 40.472 9.46614 40.2664 9.53624H40.2294L40.1955 9.79428L40.0229 9.74268L40.0599 9.43302H39.9852C40.1292 9.3298 40.1955 9.15648 40.1955 8.98393C40.1955 8.79598 40.1292 8.65502 40.0599 8.55334H40.2294L40.1585 8.48247C40.1292 8.41315 40.0599 8.3469 39.9528 8.23983C39.9197 8.2067 39.8866 8.13663 39.8866 8.1035C39.9197 8.13663 39.9528 8.17358 40.0229 8.2067C40.0923 8.27603 40.1955 8.3469 40.2294 8.41315L40.3318 8.48247V7.06821L40.2294 7.15218C40.1955 7.18684 40.0923 7.25618 40.0229 7.32628C39.9528 7.39638 39.9197 7.39638 39.8866 7.4295C39.8866 7.39638 39.9197 7.3594 39.9528 7.2893C40.0599 7.22306 40.1292 7.11597 40.1585 7.06821L40.2294 6.96116H38.8144L38.8845 7.06821C38.9507 7.11597 39.0393 7.22306 39.1094 7.2893C39.1425 7.3594 39.1756 7.39638 39.2118 7.4295C39.1756 7.39638 39.1094 7.39638 39.0724 7.32628C38.9507 7.25618 38.8844 7.18684 38.8144 7.15218L38.745 7.06821V8.48247L38.8144 8.41315C38.8844 8.3469 38.9507 8.27603 39.0724 8.2067C39.1094 8.17358 39.1756 8.13663 39.2118 8.1035C39.1756 8.13663 39.1425 8.2067 39.1094 8.23983C39.0393 8.3469 38.9507 8.41315 38.8845 8.48247L38.8144 8.55334H39.0393C38.9176 8.65502 38.8845 8.79598 38.8845 8.98393C38.8845 9.15648 38.9507 9.3298 39.0724 9.43302H39.0393L39.0724 9.74268L38.8845 9.79428L38.8475 9.53624H38.8144C38.6079 9.46614 38.4354 9.50312 38.2952 9.60634C37.0165 9.90137 36.1699 10.5191 36.7407 12.0405C36.914 12.508 37.1243 13.0241 37.3816 13.4593V13.6835C36.0998 13.2675 33.8013 11.8672 33.1827 11.0206C33.1126 10.9359 33.061 10.8658 33.0279 10.8142L33.021 10.818L33.0464 9.90136C33.4924 9.15649 33.8899 8.23983 34.2034 7.39635C35.0137 5.20101 33.8198 4.28745 31.9225 3.90384C31.7315 3.76904 31.4889 3.69818 31.1792 3.80217L31.1122 4.14804L30.7155 4.11492L30.7478 3.66505C30.6785 3.69817 30.6115 3.69817 30.5422 3.69817C30.8141 3.56183 31.0059 3.22984 31.0059 2.88783C31.0059 2.64518 30.8842 2.35016 30.6785 2.21382H31.0059C30.8141 2.03973 30.5052 1.67615 30.4382 1.43659C30.6785 1.50283 31.0429 1.831 31.2123 2.00662V0.209522C31.0429 0.345865 30.6785 0.691731 30.4382 0.724852C30.5052 0.523034 30.8141 0.173313 31.0059 -1.15422e-06H29.2088C29.3482 0.173313 29.6941 0.523034 29.7272 0.724852C29.5177 0.691731 29.1757 0.345865 28.9839 0.209522V2.00662C29.1757 1.831 29.5177 1.50283 29.7272 1.43659C29.6941 1.67615 29.3482 2.03973 29.2088 2.21382H29.5177C29.312 2.35016 29.2088 2.64518 29.2088 2.88783C29.2088 3.22984 29.3813 3.56183 29.6579 3.69817C29.5878 3.69817 29.5177 3.69817 29.4144 3.66505L29.4514 4.11492L29.0532 4.14804L29.017 3.80217C28.7073 3.69818 28.4685 3.76904 28.2582 3.90384C26.3795 4.28745 25.1825 5.20101 25.9967 7.39635C26.2732 8.23983 26.6707 9.15649 27.1529 9.90136V10.8511C27.1197 10.8843 27.0835 10.9544 27.0165 11.0206C26.4126 11.8672 24.0963 13.2675 22.8177 13.6835V13.4593C23.0757 13.0241 23.286 12.508 23.4585 12.0405C24.0301 10.5191 23.1828 9.90137 21.9041 9.60634C21.7608 9.50312 21.5952 9.46614 21.3849 9.53624H21.3518L21.3148 9.79428L21.1423 9.74268L21.1754 9.43302H21.1423C21.2447 9.3298 21.3148 9.15648 21.3148 8.98393C21.3148 8.79598 21.2817 8.65502 21.1754 8.55334H21.3849L21.3148 8.48247C21.2447 8.41315 21.1754 8.3469 21.1084 8.23983C21.0752 8.2067 21.0244 8.13663 20.9874 8.1035C21.0244 8.13663 21.1084 8.17358 21.1423 8.2067C21.2447 8.27603 21.3148 8.3469 21.3849 8.41315L21.455 8.48247V7.06821L21.3849 7.15218C21.3148 7.18684 21.2447 7.25618 21.1423 7.32628C21.1084 7.39638 21.0244 7.39638 20.9874 7.4295C21.0244 7.39638 21.0752 7.3594 21.1084 7.2893C21.1754 7.22306 21.2447 7.11597 21.3148 7.06821L21.3849 6.96116H19.9699L20.0369 7.06821C20.07 7.11597 20.1586 7.22306 20.2287 7.2893C20.2949 7.3594 20.3281 7.39638 20.3281 7.4295C20.2949 7.39638 20.2618 7.39638 20.1948 7.32628C20.107 7.25618 20.0007 7.18684 19.9699 7.15218L19.8636 7.06821V8.48247L19.9699 8.41315C20.0007 8.3469 20.107 8.27603 20.1948 8.2067C20.2618 8.17358 20.2949 8.13663 20.3281 8.1035C20.3281 8.13663 20.2949 8.2067 20.2287 8.23983C20.1586 8.3469 20.07 8.41315 20.0369 8.48247L19.9699 8.55334H20.1586C20.07 8.65502 20.0007 8.79598 20.0007 8.98393C20.0007 9.15648 20.07 9.3298 20.2287 9.43302H20.1586L20.1948 9.74268L20.0007 9.79428L19.9699 9.53624H19.9337C19.7234 9.46614 19.5547 9.50312 19.4145 9.60634C18.1366 9.90137 17.2893 10.5191 17.86 12.0405C18.0334 12.508 18.2429 13.0241 18.5009 13.4593V13.7867C18.4455 13.7867 18.3977 13.769 18.3607 13.769C17.5142 13.5949 16.0991 13.0603 15.8565 12.2138C15.6316 11.5067 16.1361 10.5561 16.3395 10.144C16.6669 9.43302 17.223 8.27605 16.6376 7.53195C16.3757 7.25618 15.9959 7.15219 15.6316 6.96116C15.1856 6.72236 14.906 6.47818 14.339 6.20318C13.8853 5.94513 13.1119 6.27328 12.3316 7.53195C12.1622 7.80848 11.7978 8.13663 11.6569 8.27605C10.2942 8.44629 9.41377 8.88073 9.22658 9.67721C8.90999 11.264 10.4683 11.2301 10.3643 12.2138C10.3273 12.7854 9.72727 12.3863 9.44689 12.3532C8.90999 12.2138 8.37541 12.5412 8.37541 13.2344C8.37541 13.5256 8.56721 14.1803 9.22658 14.5824C8.95005 14.0817 8.98317 13.4594 9.44689 13.5949C10.4313 13.9084 10.9829 13.9415 11.6237 13.095C11.6237 13.5587 11.2116 13.9415 11.0237 14.339C10.6408 15.3227 11.2779 16.3765 12.5412 16.3433C11.9704 15.8049 12.0882 15.1863 12.0882 15.1863C12.2654 14.302 12.8177 14.044 13.0056 13.3007C13.3893 11.6615 11.8672 11.4042 12.1953 9.86361C12.2284 9.63945 12.2985 9.22734 12.401 9.01705C13.3893 8.88071 13.9223 8.48247 14.6109 8.17358C15.3219 9.53623 13.2814 11.2971 14.5778 12.6814C15.3219 13.4594 16.7038 13.9084 18.1366 14.0086C18.1658 14.0086 18.2136 14.0263 18.2506 14.0301C18.1512 14.0964 18.0996 14.2327 18.0996 14.4091C17.7237 14.2689 17.4294 14.4761 17.4811 14.8913C15.9959 14.8913 14.6849 15.7756 15.0092 17.4996C15.1124 18.1366 15.355 18.4162 15.7533 18.7266C16.3757 17.7422 18.1735 17.6729 19.3444 18.313C18.7074 18.2768 17.7899 18.4493 17.223 18.6889C16.5636 18.9839 15.7202 19.3675 14.8397 19.2643C14.232 19.1942 13.9223 18.8152 13.8006 18.38C13.5248 18.6226 13.7313 19.8305 14.7665 20.3173C15.2857 20.5753 16.2024 20.6785 16.8402 20.2102C17.0828 20.0746 18.0334 19.0209 19.1934 19.0209C17.5142 19.4699 17.0466 20.6786 18.3607 21.4042C18.3091 20.9874 18.2429 20.4174 19.0863 19.9013C19.5547 19.6063 20.2949 19.4338 21.0244 19.6579C21.2817 19.7611 21.6245 19.9383 21.8348 20.0045C22.1953 20.0377 22.3686 19.8304 22.471 19.728C23.2159 20.2803 24.302 22.0073 24.5454 23.0942C24.8035 24.3398 24.6155 25.1532 23.9931 25.8796C23.7867 26.1045 22.7845 26.9133 21.8016 26.0667C21.7092 26.8586 22.1182 27.4487 22.7553 27.662C22.1845 27.7244 21.8016 27.7468 21.7901 27.7498L21.6907 27.7537L21.6507 27.8492C21.6391 27.8685 21.5544 28.0672 21.4512 28.4685C21.0937 28.3322 20.7918 28.078 20.6077 27.7244C19.7604 28.6935 20.0223 30.2479 21.1608 30.7001C21.1492 30.9142 21.1423 31.143 21.1423 31.3779C20.1655 32.1297 18.3908 31.9749 17.5142 30.6785C16.8402 29.6956 17.6166 28.9877 18.0002 28.5895C18.9831 27.6404 18.9831 26.7223 18.2721 25.7055C17.3593 24.3397 14.5416 22.1113 13.4586 20.4867C13.2814 20.7818 13.179 21.0583 13.1412 21.1607C12.1252 20.3874 10.9829 18.7821 10.6077 17.5696C10.3974 17.6028 10.2434 17.8123 10.0701 17.9671C8.49712 15.9782 5.63162 11.197 4.82127 9.3298C3.10814 10.144 3.14126 12.5789 3.66429 13.9747C4.12493 15.2526 4.906 16.6191 6.54442 18.5202C6.02909 18.1366 2.81697 14.8582 2.10675 14.443C0.916651 16.1369 1.727 19.1233 3.9701 20.3874C3.28145 20.0746 1.58758 19.4338 0.674007 19.6579C0.500691 21.559 2.03666 22.8546 2.9872 23.5625C2.07363 23.3561 1.01987 23.2013 0 23.4924C0.0693265 24.7896 1.41426 26.2393 3.31458 26.9133C2.10676 26.7924 0.880447 26.9511 0.135572 27.3963C0.275766 28.7443 1.7971 29.9044 3.62424 30.1817C2.39716 30.3172 1.31027 30.8557 0.743334 31.5959C1.41426 32.4756 2.39716 33.1496 3.90385 33.1165C3.55722 33.2382 3.15975 33.4777 2.81697 33.8059C2.78076 33.7728 2.71066 33.7396 2.64442 33.7396C2.57047 33.7728 2.5412 33.876 2.57047 33.9453C2.57047 33.9453 2.57047 33.9453 2.57047 33.9969C2.4272 34.1009 2.34632 34.218 2.33091 34.3435C2.19072 34.5431 2.04744 34.7772 1.96964 34.9806C2.00662 34.9991 2.03666 35.0322 2.07363 35.0507C2.059 35.1685 2.08442 35.301 2.173 35.4304C2.10675 35.4998 2.07363 35.6038 2.03666 35.7062L1.15621 35.3596C1.10845 36.1591 1.28485 36.8193 1.69003 37.2275C2.00662 37.588 2.3648 37.5364 2.26158 37.6589L3.21521 38.2436C3.38467 38.6087 3.73053 38.6087 3.9701 38.5055C3.9701 38.5055 3.9701 38.5386 3.9701 38.5756C3.9701 38.9545 4.23123 39.2642 4.57478 39.3859C4.50853 39.6986 4.6441 39.9051 5.07855 40.0445L8.67043 48.7488C8.53024 49.1617 8.67043 49.5261 8.98317 49.6624C8.90999 49.7648 8.84375 49.8719 8.84375 50.0784C8.98317 49.9759 9.18961 49.9389 9.29283 50.2332C9.35907 50.4388 8.98317 51.1129 9.55396 51.5627C9.48001 51.9602 9.6903 52.3731 10.1032 52.5502C10.1032 52.7567 10.2942 53.4307 10.3273 53.6702C10.0701 54.0338 9.48001 54.5869 9.55396 55.1908C9.62405 55.626 9.79352 55.7624 10.1394 55.8648C9.99996 56.642 10.4313 56.9887 11.0899 57.0249C11.0899 57.5926 11.6237 57.7982 11.9704 57.8314C12.2985 58.0756 12.4379 58.178 12.8177 58.3698C12.4711 58.7827 12.7145 59.3203 13.3515 59.4937C13.4224 59.7332 13.5949 59.942 13.9554 60.0275C14.1657 60.3733 14.5416 60.3733 14.7665 60.2701C14.906 60.2008 15.1494 59.8026 14.9391 59.4567C15.0793 59.2834 15.0092 58.9552 14.906 58.7495C15.1124 58.3698 14.9391 57.9022 14.6479 57.7651C14.6849 57.5564 14.5778 57.2282 14.5085 57.0249C15.0092 56.7121 15.6316 56.3147 15.8565 56.1783C17.0828 55.2979 18.464 54.5168 20.0369 54.4136C20.4351 54.3774 21.1754 54.3442 21.5952 54.3774C22.2322 54.4467 23.1127 54.6393 23.6288 54.2403C23.7867 54.1378 23.8899 53.9645 23.8568 53.7912C23.7867 53.3929 23.3553 53.0471 23.2159 52.6858C23.1789 52.5764 23.1127 52.4177 23.0464 52.2737C23.4955 52.3546 23.9084 52.2883 24.1657 52.1666C24.4422 52.0642 25.1162 51.5627 25.0831 50.8232C24.5454 51.0805 23.249 51.4264 23.1127 50.1115C22.9725 48.9553 23.9931 47.9716 25.5838 48.403C26.6707 48.6787 28.2582 50.9919 26.807 51.9979C26.0991 52.4801 25.013 52.9439 25.1524 54.2071C25.6169 53.6371 26.2362 53.3598 27.0466 53.4307C25.8565 54.3111 24.9429 54.4136 23.6981 55.0876C22.612 55.7254 21.8016 56.783 20.9505 56.8161C20.2949 56.8492 19.9337 56.0712 20.5707 55.4673C19.9337 55.331 19.0863 55.8317 18.8437 56.5026C18.534 57.4193 18.7736 58.0755 19.3444 58.4391C18.571 58.852 18.0002 59.6662 18.2721 60.8224C18.534 61.773 19.4846 61.773 19.1233 62.9815C19.6579 62.8414 20.0007 62.4801 20.1586 61.9609C20.2287 61.6004 20.2949 61.2214 20.4713 61.0473C20.3982 61.773 20.8141 62.8414 21.8016 63.3274C22.471 63.6556 23.5286 63.7911 24.339 62.9484C24.6671 63.8982 25.7864 64.7085 26.9472 64.6754C27.4802 64.6754 28.0002 64.4467 28.3977 64.2109C28.6742 64.9142 29.3813 65.626 30.0885 65.9688C30.8141 65.626 31.5251 64.9142 31.8162 64.2109C32.1991 64.4467 32.7336 64.6754 33.2528 64.6754C34.3728 64.7085 35.5475 63.8982 35.8603 62.9484C36.6706 63.7911 37.7244 63.6556 38.3984 63.3274C39.3859 62.8414 39.798 61.773 39.7318 61.0473C39.9197 61.2214 39.9852 61.6004 40.0599 61.9609C40.1955 62.4801 40.5383 62.8414 41.0759 62.9815C40.7154 61.773 41.6837 61.773 41.9233 60.8224C42.199 59.6662 41.629 58.852 40.8695 58.4391C41.4226 58.0755 41.6837 57.4193 41.3525 56.5026C41.1129 55.8317 40.2664 55.331 39.6247 55.4673C40.2664 56.0712 39.9197 56.8492 39.2449 56.8161C38.3984 56.783 37.588 55.7254 36.4981 55.0876C35.2564 54.4136 34.3397 54.3111 33.1496 53.4307C33.96 53.3598 34.6008 53.6371 35.0468 54.2071C35.1863 52.9439 34.1002 52.4801 33.3884 51.9979C31.9564 50.9919 33.5294 48.6787 34.634 48.403C36.2031 47.9716 37.2414 48.9553 37.0874 50.1115C36.914 51.4264 35.6538 51.0805 35.0838 50.8232C35.0838 51.5627 35.754 52.0642 36.0336 52.1666C36.3579 52.3215 36.9541 52.4023 37.4918 52.1736C37.474 52.303 37.4517 52.4432 37.4517 52.4801C37.3454 53.604 36.7407 53.7064 36.9472 54.1709C37.2414 54.5168 39.1756 54.4467 39.6948 54.5538C40.6122 54.6747 41.3894 55.0182 42.2699 55.1908C43.2528 55.3972 44.3066 55.3972 45.1901 55.7624C45.7578 56.005 46.3987 56.4695 46.951 56.7453C47.7944 56.8854 47.6581 57.2282 48.1965 57.2282C48.6787 57.2282 48.8659 56.8161 49.4891 56.642C49.9197 56.5388 50.4019 56.7121 50.8332 56.5719C51.1468 56.5026 51.2862 56.1783 51.5812 56.005C51.9271 55.7955 52.41 55.7955 52.7382 55.5005C52.9107 55.3487 52.9439 55.0545 52.9177 54.848L52.9254 54.8965C53.5847 54.4321 54.0854 53.7581 54.362 52.977C54.5345 52.9439 54.6716 52.7898 54.6716 52.6165C54.6716 52.5834 54.6716 52.5502 54.6716 52.5502C54.8442 52.41 54.9474 52.1997 54.9474 51.9979C54.9474 51.736 54.8442 51.5296 54.6716 51.357C54.6716 51.357 54.6716 51.3201 54.6716 51.2862C54.6716 51.1506 54.6015 51.0474 54.5345 50.9588C54.2587 49.456 53.1172 48.2481 51.6475 47.8684C51.6475 47.8322 51.6475 47.8322 51.6475 47.7991H51.6143C51.6143 47.7282 51.5812 47.692 51.5296 47.692C51.3193 47.4855 51.0759 47.1612 51.0466 46.951C51.2862 47.0211 51.6844 47.4 51.8901 47.5549V45.5698C51.6844 45.7246 51.2862 46.1052 51.0466 46.1737C51.0759 45.9311 51.4556 45.4997 51.6475 45.3272H49.6285C49.8172 45.4997 50.1962 45.9311 50.2293 46.1737C49.9898 46.1052 49.5923 45.7246 49.3859 45.5698V47.5549C49.5923 47.4 49.9898 47.0211 50.2293 46.951C50.1962 47.1944 49.8172 47.6257 49.6285 47.7991L49.6986 47.8322C48.1965 48.178 46.9841 49.4228 46.7076 50.9588C46.6051 51.0474 46.535 51.1506 46.535 51.2862C46.535 51.3201 46.535 51.357 46.535 51.357C46.3617 51.5296 46.2585 51.736 46.2585 51.9979C46.2585 52.1997 46.3617 52.41 46.535 52.5502C46.535 52.5502 46.535 52.5834 46.535 52.6165C46.535 52.8414 46.6744 52.9439 46.8447 52.977C46.9148 53.1688 46.9987 53.3598 47.0873 53.5331C47.0873 53.5154 47.0873 53.5154 47.1096 53.4969C46.9841 54.0669 46.2954 54.4136 46.1406 54.4136C44.9105 54.5869 43.5478 54.0669 42.303 53.604C41.7538 53.3929 41.0097 53.1541 40.6453 52.6165C40.4204 52.2267 40.3249 51.9787 40.4389 51.6328C40.5752 51.8061 40.8033 51.9979 41.1129 52.1666C41.146 51.9979 41.146 51.8061 41.2123 51.6659C41.5289 52.1335 42.0265 52.3731 42.6304 52.3399C42.2699 52.031 42.0966 51.2168 42.2699 50.5097C42.7706 51.357 44.6709 51.5296 45.0175 50.009C44.3066 50.3402 43.8567 49.9759 43.7204 49.5961C43.5108 48.9884 44.2033 47.5187 43.5809 46.3802C43.0795 45.5367 42.5133 45.0175 41.183 44.8111C41.2862 44.6532 41.3193 44.513 41.3525 44.2742C40.1292 44.724 39.0724 44.3766 38.5709 43.3938C38.8143 43.4962 39.1756 43.5339 39.5215 43.5339C38.4354 42.6489 38.5016 40.1439 39.2819 38.8521C39.3859 38.782 39.419 38.7119 39.5215 38.6788C39.761 39.1618 40.472 39.1618 40.8325 39.5585C40.9735 39.419 41.0428 39.3859 41.183 39.2642C41.183 39.2642 41.2123 41.3201 41.3525 42.1659C41.4888 43.1172 42.4093 43.014 42.8738 43.43C43.4261 42.8222 44.4275 42.8553 44.2734 41.8023C44.1332 40.7516 43.9268 39.8026 43.8944 39.0909C44.2033 39.7318 44.8072 42.1328 45.0507 42.8222C45.4443 43.8428 46.4318 43.5339 46.9841 43.9306C47.3484 43.2204 48.2628 43.014 47.8977 41.9417C47.7944 41.666 46.2954 38.5055 46.0705 37.8977C46.6051 38.6788 48.0556 41.4588 48.5054 42.2368C49.0061 43.0471 49.9197 42.6489 50.5752 42.8553C50.7008 42.2699 51.5812 41.5959 50.9403 40.5791C50.13 39.2311 48.2297 36.8809 48.1257 36.5535C48.5054 36.914 51.4556 40.5791 51.6844 40.7847C52.3731 41.3894 53.3745 40.9219 53.9637 40.9219C53.9637 40.2517 54.4983 39.4899 53.7249 38.7119C53.014 38.0379 51.3902 36.8809 51.0466 36.4834C52.1297 37.2275 53.4114 38.4169 54.1702 38.6087C55.5182 38.9545 56.0012 38.4169 56.5057 38.2104C56.0897 36.9849 56.642 36.4172 53.7912 35.224C56.2584 36.1044 57.3492 35.67 58.2296 34.9806C57.883 34.1009 57.0025 33.3607 56.2916 33.1165C57.7983 33.1496 58.8004 32.4756 59.4559 31.5959C58.9036 30.8557 57.7982 30.3172 56.5388 30.1817C58.4022 29.9044 59.8873 28.7443 60.0598 27.3963Z" fill="#D92C04"/>
</svg>
